<svg width="28" height="30" viewBox="0 0 28 30" fill="none" xmlns="http://www.w3.org/2000/svg">
<path d="M7.661 20.19C7.88798 20.19 8.11275 20.1453 8.32245 20.0584C8.53216 19.9716 8.7227 19.8442 8.88321 19.6837C9.04371 19.5232 9.17103 19.3327 9.25789 19.123C9.34475 18.9133 9.38946 18.6885 9.38946 18.4615C9.38946 18.2346 9.34475 18.0098 9.25789 17.8001C9.17103 17.5904 9.04371 17.3998 8.88321 17.2393C8.7227 17.0788 8.53216 16.9515 8.32245 16.8646C8.11275 16.7778 7.88798 16.7331 7.661 16.7331C7.20258 16.7331 6.76294 16.9152 6.43879 17.2393C6.11464 17.5635 5.93254 18.0031 5.93254 18.4615C5.93254 18.92 6.11464 19.3596 6.43879 19.6837C6.76294 20.0079 7.20258 20.19 7.661 20.19ZM22.0772 18.4592C22.0775 18.9176 21.8956 19.3574 21.5717 19.6818C21.2478 20.0061 20.8083 20.1885 20.3498 20.1888C19.8914 20.1892 19.4517 20.0073 19.1273 19.6834C18.8029 19.3595 18.6205 18.92 18.6202 18.4615C18.6202 18.0031 18.8023 17.5635 19.1265 17.2393C19.4506 16.9152 19.8903 16.7331 20.3487 16.7331C20.8071 16.7331 21.2467 16.9152 21.5709 17.2393C21.895 17.5635 22.0772 18.0031 22.0772 18.4615V18.4592ZM10.5433 0C10.2373 0 9.9438 0.121566 9.72741 0.337954C9.51103 0.554342 9.38946 0.847827 9.38946 1.15385V2.30769H7.81792C6.69599 2.30744 5.61237 2.71586 4.76972 3.45658C3.92706 4.1973 3.38307 5.2196 3.23946 6.33231L2.86561 9.23077H1.31254C1.00652 9.23077 0.713033 9.35233 0.496645 9.56872C0.280257 9.78511 0.158691 10.0786 0.158691 10.3846C0.158691 10.6906 0.280257 10.9841 0.496645 11.2005C0.713033 11.4169 1.00652 11.5385 1.31254 11.5385H2.56792L2.54485 11.7092C1.8509 11.936 1.24644 12.3764 0.817872 12.9675C0.389306 13.5585 0.158584 14.2699 0.158691 15V21.9231C0.158691 22.8411 0.523388 23.7216 1.17255 24.3708C1.82172 25.0199 2.70217 25.3846 3.62023 25.3846V28.2692C3.62023 28.7283 3.80258 29.1685 4.12716 29.4931C4.45174 29.8176 4.89197 30 5.351 30C5.81003 30 6.25026 29.8176 6.57484 29.4931C6.89942 29.1685 7.08177 28.7283 7.08177 28.2692V25.3846H20.921V28.2692C20.921 28.7283 21.1033 29.1685 21.4279 29.4931C21.7525 29.8176 22.1927 30 22.6518 30C23.1108 30 23.551 29.8176 23.8756 29.4931C24.2002 29.1685 24.3825 28.7283 24.3825 28.2692V25.3846H24.3895C25.3075 25.3846 26.188 25.0199 26.8371 24.3708C27.4863 23.7216 27.851 22.8411 27.851 21.9231V15C27.8511 14.2674 27.6189 13.5537 27.1876 12.9615C26.7563 12.3694 26.1483 11.9293 25.451 11.7046L25.4302 11.5385H26.6972C27.0032 11.5385 27.2967 11.4169 27.513 11.2005C27.7294 10.9841 27.851 10.6906 27.851 10.3846C27.851 10.0786 27.7294 9.78511 27.513 9.56872C27.2967 9.35233 27.0032 9.23077 26.6972 9.23077H25.1348L24.7656 6.33923C24.6236 5.22566 24.0806 4.20202 23.2383 3.45994C22.396 2.71786 21.312 2.30822 20.1895 2.30769H18.6202V1.15385C18.6202 0.847827 18.4987 0.554342 18.2823 0.337954C18.0659 0.121566 17.7724 0 17.4664 0H10.5433ZM4.89408 11.5385L5.52869 6.62769C5.6005 6.07134 5.87249 5.56019 6.29382 5.18983C6.71515 4.81947 7.25695 4.61526 7.81792 4.61538H20.1872C20.7485 4.61533 21.2906 4.81986 21.7119 5.1907C22.1333 5.56153 22.4051 6.07323 22.4764 6.63L23.1041 11.5385H4.89638H4.89408ZM25.5433 21.9231C25.5433 22.2291 25.4217 22.5226 25.2054 22.739C24.989 22.9554 24.6955 23.0769 24.3895 23.0769H3.62023C3.31421 23.0769 3.02073 22.9554 2.80434 22.739C2.58795 22.5226 2.46638 22.2291 2.46638 21.9231V15C2.46638 14.694 2.58795 14.4005 2.80434 14.1841C3.02073 13.9677 3.31421 13.8462 3.62023 13.8462H24.3895C24.6955 13.8462 24.989 13.9677 25.2054 14.1841C25.4217 14.4005 25.5433 14.694 25.5433 15V21.9231Z" fill="white"/>
</svg>
