<svg width="30" height="30" viewBox="0 0 30 30" fill="none" xmlns="http://www.w3.org/2000/svg">
<path d="M24.4013 13.1464L24.2548 13.2929V13.5V20.5389V21.405V21.42H24.7462L24.5048 21.838C24.9814 22.1131 25.3539 22.5379 25.5645 23.0463C25.7751 23.5548 25.8121 24.1185 25.6697 24.6501C25.5272 25.1817 25.2134 25.6514 24.7767 25.9864C24.3401 26.3214 23.8052 26.503 23.2548 26.503C22.7045 26.503 22.1695 26.3214 21.7329 25.9864C21.2963 25.6514 20.9825 25.1817 20.84 24.6501C20.6976 24.1185 20.7345 23.5548 20.9451 23.0463C21.1558 22.5379 21.5282 22.1131 22.0048 21.838L22.2548 21.6936V21.405V13.5V13.2929L22.1084 13.1464L19.1084 10.1464L18.962 9.99998H18.7549H8.25487H7.75487V10.5V15V15.5H8.25487H12.2549V20.5H8.25487H7.75487V21V25.5V26H8.25487H11.6749H11.9635L12.1079 25.75C12.3276 25.3694 12.6438 25.0534 13.0246 24.834C13.4053 24.6145 13.8372 24.4993 14.2767 24.5C14.7162 24.5007 15.1477 24.6172 15.5278 24.8378C15.9079 25.0584 16.2231 25.3753 16.4417 25.7565C16.6603 26.1378 16.7745 26.57 16.7729 27.0094C16.7712 27.4489 16.6537 27.8802 16.4323 28.2598C16.2108 28.6394 15.8932 28.9539 15.5115 29.1716L15.7592 29.6059L15.5115 29.1716C15.1297 29.3893 14.6973 29.5026 14.2579 29.5C13.8216 29.4973 13.3936 29.3806 13.0164 29.1613C12.6392 28.942 12.326 28.6278 12.1079 28.25L11.9635 27.9999H11.6749H5.75487V21V20.5H5.25487H1.25488V15.5H5.25487H5.75487V15V5.99999V5.49999H5.25487H1.25488V0.5H12.2549V5.49999H8.25487H7.75487V5.99999V7.49999V7.99999H8.25487H18.7549H18.962L19.1084 7.85354L23.2548 3.7071L28.5477 8.99998L24.4013 13.1464ZM1.75488 4.49999V4.99999H2.25488H11.2549H11.7549V4.49999V1.5V0.999997H11.2549H2.25488H1.75488V1.5V4.49999ZM11.7549 16.5V16H11.2549H2.25488H1.75488V16.5V19.5V20H2.25488H11.2549H11.7549V19.5V16.5ZM23.6084 4.76144L23.2548 4.40788L22.9013 4.76144L19.0163 8.64643L18.6627 8.99998L19.0163 9.35354L22.9013 13.2385L23.2548 13.5921L23.6084 13.2385L27.4934 9.35354L27.8469 8.99998L27.4934 8.64643L23.6084 4.76144ZM15.366 25.337C15.0371 25.1172 14.6504 25 14.2549 25C13.7244 25 13.2157 25.2107 12.8406 25.5857C12.4656 25.9608 12.2549 26.4695 12.2549 27C12.2549 27.3955 12.3722 27.7822 12.5919 28.1111C12.8117 28.44 13.124 28.6963 13.4895 28.8477C13.8549 28.9991 14.2571 29.0387 14.645 28.9615C15.033 28.8843 15.3894 28.6939 15.6691 28.4142C15.9488 28.1345 16.1393 27.7781 16.2164 27.3901C16.2936 27.0022 16.254 26.6 16.1026 26.2346C15.9512 25.8691 15.6949 25.5568 15.366 25.337ZM22.1437 25.6629C22.4726 25.8827 22.8593 26 23.2548 26C23.7853 26 24.294 25.7892 24.6691 25.4142C25.0441 25.0391 25.2548 24.5304 25.2548 24C25.2548 23.6044 25.1375 23.2177 24.9178 22.8888C24.698 22.5599 24.3857 22.3036 24.0202 22.1522C23.6548 22.0008 23.2526 21.9612 22.8647 22.0384C22.4767 22.1156 22.1203 22.306 21.8406 22.5857C21.5609 22.8654 21.3704 23.2218 21.2933 23.6098C21.2161 23.9977 21.2557 24.3999 21.4071 24.7653C21.5585 25.1308 21.8148 25.4431 22.1437 25.6629Z" fill="white" stroke="white"/>
</svg>
