<svg width="47" height="50" viewBox="0 0 47 50" fill="none" xmlns="http://www.w3.org/2000/svg">
<path d="M0 0V46.4286H28.5714V42.8571H3.57143V3.57143H21.4286V14.2857H32.1429V17.8571H35.7143V11.7857L35.1786 11.25L24.4643 0.535714L23.9286 0H0ZM25 6.07143L29.6429 10.7143H25V6.07143ZM7.14286 17.8571V21.4286H28.5714V17.8571H7.14286ZM37.5 21.4286V25C34.4643 25.5357 32.1429 28.0357 32.1429 31.25C32.1429 34.8214 34.8214 37.5 38.3929 37.5H40.1786C41.6071 37.5 42.8571 38.75 42.8571 40.1786C42.8571 41.6071 41.6071 42.8571 40.1786 42.8571H33.9286V46.4286H37.5V50H41.0714V46.4286C44.1071 45.8929 46.4286 43.3929 46.4286 40.1786C46.4286 36.6071 43.75 33.9286 40.1786 33.9286H38.3929C36.9643 33.9286 35.7143 32.6786 35.7143 31.25C35.7143 29.8214 36.9643 28.5714 38.3929 28.5714H44.6429V25H41.0714V21.4286H37.5ZM7.14286 26.7857V30.3571H19.6429V26.7857H7.14286ZM23.2143 26.7857V30.3571H28.5714V26.7857H23.2143ZM7.14286 33.9286V37.5H19.6429V33.9286H7.14286ZM23.2143 33.9286V37.5H28.5714V33.9286H23.2143Z" fill="white"/>
</svg>
