<svg width="25" height="25" viewBox="0 0 25 25" fill="none" xmlns="http://www.w3.org/2000/svg">
<path d="M10.5915 20.8693C12.8676 20.8688 15.0781 20.1069 16.8711 18.7047L22.5081 24.3418L24.3213 22.5286L18.6843 16.8915C20.0871 15.0984 20.8495 12.8874 20.8501 10.6108C20.8501 4.95446 16.2479 0.352219 10.5915 0.352219C4.93525 0.352219 0.333008 4.95446 0.333008 10.6108C0.333008 16.2671 4.93525 20.8693 10.5915 20.8693ZM10.5915 2.91685C14.8347 2.91685 18.2855 6.36757 18.2855 10.6108C18.2855 14.8539 14.8347 18.3047 10.5915 18.3047C6.34836 18.3047 2.89764 14.8539 2.89764 10.6108C2.89764 6.36757 6.34836 2.91685 10.5915 2.91685Z" fill="#828282"/>
</svg>
