<svg width="31" height="30" viewBox="0 0 31 30" fill="none" xmlns="http://www.w3.org/2000/svg">
<path fill-rule="evenodd" clip-rule="evenodd" d="M29.5865 5.32199L27.9136 4.92736L23.3925 9.42271L20.8317 6.81472L25.2413 2.18854L24.8552 0.489921C23.9234 0.178185 22.9488 0.0132156 21.9663 0.000922952C20.8945 -0.0155588 19.8308 0.188862 18.8414 0.601447C17.8862 1.03385 17.0227 1.64541 16.2978 2.40302C15.4908 3.16742 14.8517 4.09136 14.4211 5.1161C13.5921 7.15548 13.5921 9.43797 14.4211 11.4774C9.9499 15.8762 5.53639 20.3333 1.18174 24.8476C0.731352 25.4374 0.516879 26.173 0.572642 26.913C0.616592 27.7088 0.974493 28.4547 1.5678 28.9869C1.83374 29.2764 2.15116 29.5167 2.50504 29.6904C2.86965 29.8512 3.26213 29.9435 3.6589 29.9628C4.33664 29.9499 4.98649 29.6925 5.4905 29.24C8.81054 26.1151 15.1718 19.696 18.7857 15.9341C19.7658 16.3502 20.8189 16.5647 21.8827 16.5625C22.9535 16.5617 24.0133 16.3462 24.9994 15.9288C25.9855 15.5115 26.878 14.9007 27.6241 14.1325C29.1566 12.5696 30.0125 10.4663 30.0069 8.27742C30.0317 7.27578 29.8896 6.277 29.5865 5.32199ZM4.19294 27.7194C4.11039 27.7927 4.01088 27.8443 3.9034 27.8695C3.79767 27.8878 3.68958 27.8878 3.58384 27.8695C3.47298 27.8526 3.36739 27.8108 3.275 27.7473C3.17586 27.6892 3.09203 27.6083 3.0305 27.5113C2.73024 27.2046 2.44928 26.6213 2.73024 26.2931C5.66851 23.1683 11.7188 17.0601 15.5021 13.3261C15.7166 13.6092 15.9525 13.8795 16.2056 14.1325C16.4586 14.3963 16.731 14.6408 17.0206 14.8639C13.3616 18.6172 7.39502 24.6524 4.19509 27.7194H4.19294ZM28.038 8.27742C28.0423 9.91814 27.4032 11.4945 26.2536 12.6698C25.1064 13.7951 23.5636 14.4255 21.9566 14.4255C20.3497 14.4255 18.8068 13.7951 17.6597 12.6698C16.8189 11.7924 16.2446 10.6943 16.0035 9.50324C15.7624 8.31218 15.8644 7.07714 16.2978 5.94182C16.5862 5.16914 17.0336 4.46561 17.6111 3.87672C18.1885 3.28783 18.8831 2.82669 19.65 2.52312C20.3781 2.21837 21.1598 2.06232 21.9491 2.06415H22.4939L18.5969 6.08122V7.57395L22.6612 11.6189H24.0767L28.038 7.72409V8.27742ZM4.85137 12.1916H8.13495L9.64698 13.7293L11.1011 12.2838L9.67486 10.8297V10.7374L9.79711 7.20077L9.32527 6.26353L3.19135 2.22715L1.92382 2.3687L0.141552 4.18958L0 5.47427L3.94201 11.7326L4.85137 12.1937V12.1916ZM2.82461 4.4019L7.78751 7.67047L7.70386 10.079H5.39613L2.1962 5.01315L2.82461 4.4019ZM18.0629 19.3292L19.5084 17.8858L26.17 24.7168C26.7311 25.3065 27.044 26.0893 27.044 26.9033C27.044 27.7173 26.7311 28.5002 26.17 29.0899C25.7481 29.523 25.2055 29.8191 24.613 29.9396C24.0204 30.0601 23.4053 29.9994 22.8478 29.7654C22.4919 29.6076 22.1728 29.3776 21.9105 29.0899L15.1718 22.2203L16.6281 20.7662L23.3454 27.6164C23.4357 27.7161 23.5481 27.7932 23.6735 27.8416C23.9204 27.9419 24.1966 27.9419 24.4435 27.8416C24.5689 27.7931 24.6812 27.716 24.7716 27.6164C24.8655 27.5234 24.9386 27.4116 24.9861 27.2883C25.0353 27.1624 25.0614 27.0288 25.0633 26.8937C25.0611 26.7588 25.0357 26.6253 24.9882 26.499C24.9407 26.3757 24.8676 26.2639 24.7737 26.1709L18.0629 19.3292Z" fill="white"/>
</svg>
