<svg width="28" height="30" viewBox="0 0 28 30" fill="none" xmlns="http://www.w3.org/2000/svg">
<path d="M0.0761719 0V27.8571H17.219V25.7143H2.21903V2.14286H12.9333V8.57143H19.3619V10.7143H21.5047V7.07143L21.1833 6.75L14.7547 0.321429L14.4333 0H0.0761719ZM15.0762 3.64286L17.8619 6.42857H15.0762V3.64286ZM4.36189 10.7143V12.8571H17.219V10.7143H4.36189ZM22.5762 12.8571V15C20.7547 15.3214 19.3619 16.8214 19.3619 18.75C19.3619 20.8929 20.969 22.5 23.1119 22.5H24.1833C25.0405 22.5 25.7905 23.25 25.7905 24.1071C25.7905 24.9643 25.0405 25.7143 24.1833 25.7143H20.4333V27.8571H22.5762V30H24.719V27.8571C26.5405 27.5357 27.9333 26.0357 27.9333 24.1071C27.9333 21.9643 26.3262 20.3571 24.1833 20.3571H23.1119C22.2547 20.3571 21.5047 19.6071 21.5047 18.75C21.5047 17.8929 22.2547 17.1429 23.1119 17.1429H26.8619V15H24.719V12.8571H22.5762ZM4.36189 16.0714V18.2143H11.8619V16.0714H4.36189ZM14.0047 16.0714V18.2143H17.219V16.0714H14.0047ZM4.36189 20.3571V22.5H11.8619V20.3571H4.36189ZM14.0047 20.3571V22.5H17.219V20.3571H14.0047Z" fill="white"/>
</svg>
