<svg width="24" height="30" viewBox="0 0 24 30" fill="none" xmlns="http://www.w3.org/2000/svg">
<path d="M21.6476 3.21429H18.4333V2.14286C18.4333 1.57454 18.2075 1.02949 17.8057 0.627628C17.4038 0.225765 16.8587 0 16.2904 0H7.71899C7.15067 0 6.60563 0.225765 6.20377 0.627628C5.8019 1.02949 5.57614 1.57454 5.57614 2.14286V3.21429H2.36185C1.79353 3.21429 1.24849 3.44005 0.846622 3.84191C0.444759 4.24378 0.218994 4.78882 0.218994 5.35714V27.8571C0.218994 28.4255 0.444759 28.9705 0.846622 29.3724C1.24849 29.7742 1.79353 30 2.36185 30H21.6476C22.2159 30 22.7609 29.7742 23.1628 29.3724C23.5647 28.9705 23.7904 28.4255 23.7904 27.8571V5.35714C23.7904 4.78882 23.5647 4.24378 23.1628 3.84191C22.7609 3.44005 22.2159 3.21429 21.6476 3.21429ZM7.71899 2.14286H16.2904V6.42857H7.71899V2.14286ZM21.6476 27.8571H2.36185V5.35714H5.57614V8.57143H18.4333V5.35714H21.6476V27.8571Z" fill="white"/>
</svg>
