<svg width="30" height="30" viewBox="0 0 30 30" fill="none" xmlns="http://www.w3.org/2000/svg">
<path d="M15.0047 0C13.4433 0 11.9169 0.463018 10.6186 1.3305C9.32035 2.19799 8.30846 3.43098 7.71093 4.87355C7.1134 6.31613 6.95705 7.90349 7.26167 9.43492C7.56629 10.9664 8.3182 12.3731 9.42229 13.4772C10.5264 14.5813 11.9331 15.3332 13.4645 15.6378C14.996 15.9424 16.5833 15.7861 18.0259 15.1885C19.4685 14.591 20.7015 13.5791 21.569 12.2808C22.4364 10.9825 22.8995 9.45617 22.8995 7.89474C22.8995 5.80092 22.0677 3.79287 20.5871 2.31231C19.1066 0.831765 17.0985 0 15.0047 0ZM15.0047 12.6316C14.0679 12.6316 13.152 12.3538 12.3731 11.8333C11.5941 11.3128 10.987 10.573 10.6284 9.70745C10.2699 8.8419 10.1761 7.88948 10.3589 6.97063C10.5417 6.05177 10.9928 5.20774 11.6553 4.54528C12.3177 3.88282 13.1617 3.43168 14.0806 3.24891C14.9995 3.06614 15.9519 3.15995 16.8174 3.51847C17.683 3.87699 18.4228 4.48412 18.9433 5.26309C19.4637 6.04206 19.7416 6.95788 19.7416 7.89474C19.7416 9.15103 19.2425 10.3559 18.3542 11.2442C17.4658 12.1325 16.261 12.6316 15.0047 12.6316ZM29.2152 30V28.4211C29.2152 25.4897 28.0508 22.6784 25.978 20.6057C23.9052 18.5329 21.094 17.3684 18.1626 17.3684H11.8468C8.91548 17.3684 6.1042 18.5329 4.03143 20.6057C1.95866 22.6784 0.794189 25.4897 0.794189 28.4211V30H3.95208V28.4211C3.95208 26.3272 4.78385 24.3192 6.2644 22.8386C7.74495 21.3581 9.75301 20.5263 11.8468 20.5263H18.1626C20.2564 20.5263 22.2645 21.3581 23.745 22.8386C25.2256 24.3192 26.0573 26.3272 26.0573 28.4211V30H29.2152Z" fill="white"/>
</svg>
