<svg width="33" height="30" viewBox="0 0 33 30" fill="none" xmlns="http://www.w3.org/2000/svg">
<path d="M15 30C6.7155 30 0 23.2845 0 15C0 6.7155 6.7155 -3.40197e-06 15 -3.40197e-06C17.329 -0.00175309 19.6263 0.539656 21.7094 1.58121C23.7925 2.62276 25.604 4.13576 27 6H22.935C21.2028 4.47264 19.0668 3.47753 16.7831 3.1341C14.4994 2.79066 12.1651 3.11348 10.0603 4.06382C7.95556 5.01415 6.16972 6.55164 4.9171 8.49178C3.66449 10.4319 2.9983 12.6923 2.9985 15.0017C2.99869 17.311 3.66525 19.5713 4.91819 21.5112C6.17113 23.4512 7.95723 24.9883 10.0622 25.9383C12.1671 26.8883 14.5014 27.2107 16.785 26.8669C19.0687 26.5231 21.2046 25.5276 22.9365 24H27.0015C25.6054 25.8644 23.7936 27.3776 21.7102 28.4191C19.6268 29.4607 17.3292 30.002 15 30ZM25.5 21V16.5H13.5V13.5H25.5V9L33 15L25.5 21Z" fill="white"/>
</svg>
