<svg width="29" height="30" viewBox="0 0 29 30" fill="none" xmlns="http://www.w3.org/2000/svg">
<path d="M23.6464 13.1464L23.5 13.2929V13.5V20.5389V21.405V21.42H23.9913L23.75 21.838C24.2266 22.1131 24.599 22.5379 24.8097 23.0463C25.0203 23.5548 25.0572 24.1185 24.9148 24.6501C24.7723 25.1817 24.4585 25.6514 24.0219 25.9864C23.5853 26.3214 23.0503 26.503 22.5 26.503C21.9496 26.503 21.4147 26.3214 20.9781 25.9864C20.5414 25.6514 20.2276 25.1817 20.0851 24.6501C19.9427 24.1185 19.9797 23.5548 20.1903 23.0463C20.4009 22.5379 20.7734 22.1131 21.25 21.838L21.5 21.6936V21.405V13.5V13.2929L21.3535 13.1464L18.3535 10.1464L18.2071 9.99998H18H7.49999H6.99999V10.5V15V15.5H7.49999H11.5V20.5H7.49999H6.99999V21V25.5V26H7.49999H10.92H11.2086L11.353 25.75C11.5727 25.3694 11.8889 25.0534 12.2697 24.834C12.6505 24.6145 13.0823 24.4993 13.5218 24.5C13.9613 24.5007 14.3928 24.6172 14.7729 24.8378C15.153 25.0584 15.4683 25.3753 15.6868 25.7565C15.9054 26.1378 16.0197 26.57 16.018 27.0094C16.0163 27.4489 15.8989 27.8802 15.6774 28.2598C15.456 28.6394 15.1383 28.9539 14.7566 29.1716L15.0043 29.6059L14.7566 29.1716C14.3749 29.3893 13.9425 29.5026 13.503 29.5C13.0667 29.4973 12.6387 29.3806 12.2615 29.1613C11.8844 28.942 11.5711 28.6278 11.353 28.25L11.2087 27.9999H10.92H4.99999V21V20.5H4.49999H0.5V15.5H4.49999H4.99999V15V5.99999V5.49999H4.49999H0.5V0.5H11.5V5.49999H7.49999H6.99999V5.99999V7.49999V7.99999H7.49999H18H18.2071L18.3535 7.85354L22.5 3.7071L27.7928 8.99998L23.6464 13.1464ZM0.999997 4.49999V4.99999H1.5H10.5H11V4.49999V1.5V0.999997H10.5H1.5H0.999997V1.5V4.49999ZM11 16.5V16H10.5H1.5H0.999997V16.5V19.5V20H1.5H10.5H11V19.5V16.5ZM22.8535 4.76144L22.5 4.40788L22.1464 4.76144L18.2614 8.64643L17.9079 8.99998L18.2614 9.35354L22.1464 13.2385L22.5 13.5921L22.8535 13.2385L26.7385 9.35354L27.0921 8.99998L26.7385 8.64643L22.8535 4.76144ZM14.6111 25.337C14.2822 25.1172 13.8955 25 13.5 25C12.9695 25 12.4608 25.2107 12.0858 25.5857C11.7107 25.9608 11.5 26.4695 11.5 27C11.5 27.3955 11.6173 27.7822 11.837 28.1111C12.0568 28.44 12.3692 28.6963 12.7346 28.8477C13.1001 28.9991 13.5022 29.0387 13.8902 28.9615C14.2781 28.8843 14.6345 28.6939 14.9142 28.4142C15.1939 28.1345 15.3844 27.7781 15.4615 27.3901C15.5387 27.0022 15.4991 26.6 15.3477 26.2346C15.1964 25.8691 14.94 25.5568 14.6111 25.337ZM21.3888 25.6629C21.7177 25.8827 22.1044 26 22.5 26C23.0304 26 23.5391 25.7892 23.9142 25.4142C24.2892 25.0391 24.5 24.5304 24.5 24C24.5 23.6044 24.3827 23.2177 24.1629 22.8888C23.9431 22.5599 23.6308 22.3036 23.2653 22.1522C22.8999 22.0008 22.4977 21.9612 22.1098 22.0384C21.7218 22.1156 21.3655 22.306 21.0857 22.5857C20.806 22.8654 20.6156 23.2218 20.5384 23.6098C20.4612 23.9977 20.5008 24.3999 20.6522 24.7653C20.8036 25.1308 21.0599 25.4431 21.3888 25.6629Z" fill="white" stroke="white"/>
</svg>
