<svg width="30" height="34" viewBox="0 0 30 34" fill="none" xmlns="http://www.w3.org/2000/svg">
<path d="M26 16.25V9.5L19.25 2H3.5C3.10218 2 2.72064 2.15804 2.43934 2.43934C2.15804 2.72064 2 3.10218 2 3.5V30.5C2 30.8978 2.15804 31.2794 2.43934 31.5607C2.72064 31.842 3.10218 32 3.5 32H11" stroke="#E87121" stroke-width="4" stroke-linecap="round" stroke-linejoin="round"/>
<path d="M21.5 26C23.1569 26 24.5 24.6569 24.5 23C24.5 21.3431 23.1569 20 21.5 20C19.8431 20 18.5 21.3431 18.5 23C18.5 24.6569 19.8431 26 21.5 26Z" stroke="#E87121" stroke-width="4" stroke-linecap="round" stroke-linejoin="round"/>
<path d="M18.5 2V9.5H26M27.5 32C27.5 30.4087 26.8679 28.8826 25.7426 27.7574C24.6174 26.6321 23.0913 26 21.5 26C19.9087 26 18.3826 26.6321 17.2574 27.7574C16.1321 28.8826 15.5 30.4087 15.5 32H27.5Z" stroke="#E87121" stroke-width="4" stroke-linecap="round" stroke-linejoin="round"/>
</svg>
